<svg width="21" height="21" viewBox="0 0 21 21" fill="none" xmlns="http://www.w3.org/2000/svg">
<g clip-path="url(#clip0_1161_3045)">
<path d="M10.1402 7.61133C9.48095 7.61133 8.83648 7.80682 8.28832 8.1731C7.74016 8.53937 7.31291 9.05996 7.06062 9.66905C6.80833 10.2781 6.74232 10.9484 6.87094 11.595C6.99955 12.2416 7.31702 12.8355 7.7832 13.3017C8.24937 13.7679 8.84332 14.0853 9.48992 14.2139C10.1365 14.3426 10.8067 14.2766 11.4158 14.0243C12.0249 13.772 12.5455 13.3447 12.9118 12.7966C13.2781 12.2484 13.4736 11.6039 13.4736 10.9447C13.4736 10.0606 13.1224 9.21276 12.4972 8.58764C11.8721 7.96252 11.0243 7.61133 10.1402 7.61133ZM10.1402 12.6113C9.81059 12.6113 9.48835 12.5136 9.21427 12.3304C8.94019 12.1473 8.72657 11.887 8.60042 11.5825C8.47427 11.2779 8.44127 10.9428 8.50558 10.6195C8.56989 10.2962 8.72862 9.99924 8.96171 9.76615C9.1948 9.53306 9.49177 9.37433 9.81507 9.31002C10.1384 9.24571 10.4735 9.27872 10.778 9.40486C11.0826 9.53101 11.3429 9.74463 11.526 10.0187C11.7091 10.2928 11.8069 10.615 11.8069 10.9447C11.8069 11.3867 11.6313 11.8106 11.3187 12.1232C11.0062 12.4357 10.5822 12.6113 10.1402 12.6113Z" fill="black"/>
<path d="M17.8838 12.5286L17.5138 12.3153C17.6804 11.409 17.6804 10.4799 17.5138 9.57365L17.8838 9.36031C18.1684 9.19616 18.4178 8.97757 18.6178 8.71703C18.8179 8.45649 18.9647 8.1591 19.0498 7.84183C19.1349 7.52456 19.1567 7.19363 19.1139 6.86794C19.0712 6.54225 18.9647 6.22818 18.8005 5.94365C18.6363 5.65912 18.4178 5.4097 18.1572 5.20965C17.8967 5.0096 17.5993 4.86282 17.282 4.7777C16.9647 4.69258 16.6338 4.67078 16.3081 4.71355C15.9824 4.75633 15.6684 4.86283 15.3838 5.02698L15.013 5.24115C14.3126 4.64275 13.5077 4.17885 12.6388 3.87281V3.44531C12.6388 2.78227 12.3754 2.14639 11.9066 1.67755C11.4378 1.2087 10.8019 0.945313 10.1388 0.945312C9.47579 0.945313 8.8399 1.2087 8.37106 1.67755C7.90222 2.14639 7.63883 2.78227 7.63883 3.44531V3.87281C6.76999 4.17995 5.96537 4.64498 5.2655 5.24448L4.893 5.02865C4.31836 4.69713 3.63556 4.60746 2.99482 4.77936C2.35407 4.95127 1.80785 5.37068 1.47633 5.94531C1.14481 6.51995 1.05514 7.20275 1.22705 7.84349C1.39896 8.48424 1.81836 9.03046 2.393 9.36198L2.763 9.57531C2.59642 10.4816 2.59642 11.4107 2.763 12.317L2.393 12.5303C1.81836 12.8618 1.39896 13.408 1.22705 14.0488C1.05514 14.6895 1.14481 15.3723 1.47633 15.947C1.80785 16.5216 2.35407 16.941 2.99482 17.1129C3.63556 17.2848 4.31836 17.1952 4.893 16.8636L5.26383 16.6495C5.96447 17.248 6.76965 17.7119 7.63883 18.0178V18.4453C7.63883 19.1084 7.90222 19.7442 8.37106 20.2131C8.8399 20.6819 9.47579 20.9453 10.1388 20.9453C10.8019 20.9453 11.4378 20.6819 11.9066 20.2131C12.3754 19.7442 12.6388 19.1084 12.6388 18.4453V18.0178C13.5077 17.7107 14.3123 17.2456 15.0122 16.6461L15.3847 16.8611C15.9593 17.1927 16.6421 17.2823 17.2828 17.1104C17.9236 16.9385 18.4698 16.5191 18.8013 15.9445C19.1329 15.3698 19.2225 14.687 19.0506 14.0463C18.8787 13.4056 18.4593 12.8593 17.8847 12.5278L17.8838 12.5286ZM15.7605 9.38198C16.0427 10.4045 16.0427 11.4844 15.7605 12.507C15.7112 12.685 15.7225 12.8743 15.7924 13.0452C15.8624 13.2161 15.9872 13.3589 16.1472 13.4511L17.0505 13.9728C17.242 14.0833 17.3818 14.2654 17.4391 14.4789C17.4963 14.6925 17.4664 14.9201 17.3559 15.1116C17.2454 15.3031 17.0634 15.4428 16.8498 15.5001C16.6362 15.5574 16.4087 15.5275 16.2172 15.417L15.3122 14.8936C15.1521 14.8009 14.9657 14.7641 14.7824 14.789C14.5991 14.8139 14.4292 14.8991 14.2997 15.0311C13.5579 15.7884 12.6235 16.3286 11.5972 16.5936C11.418 16.6397 11.2593 16.7441 11.146 16.8902C11.0327 17.0364 10.9712 17.2162 10.9713 17.4011V18.4453C10.9713 18.6663 10.8835 18.8783 10.7273 19.0346C10.571 19.1909 10.359 19.2786 10.138 19.2786C9.91698 19.2786 9.70502 19.1909 9.54874 19.0346C9.39246 18.8783 9.30466 18.6663 9.30466 18.4453V17.402C9.30476 17.217 9.24331 17.0373 9.13 16.8911C9.0167 16.7449 8.85797 16.6405 8.67883 16.5945C7.65245 16.3284 6.71827 15.7869 5.97716 15.0286C5.8476 14.8966 5.67778 14.8114 5.49446 14.7865C5.31114 14.7616 5.12475 14.7984 4.96466 14.8911L4.06133 15.4136C3.96652 15.4692 3.86165 15.5055 3.75277 15.5204C3.64388 15.5353 3.53312 15.5285 3.42687 15.5004C3.32063 15.4723 3.22098 15.4235 3.13368 15.3567C3.04638 15.29 2.97314 15.2066 2.91819 15.1114C2.86324 15.0162 2.82766 14.9111 2.81349 14.8022C2.79933 14.6932 2.80686 14.5825 2.83566 14.4764C2.86445 14.3703 2.91394 14.271 2.98127 14.1842C3.04861 14.0973 3.13246 14.0246 3.228 13.9703L4.13133 13.4486C4.29129 13.3564 4.41606 13.2136 4.48605 13.0427C4.55603 12.8718 4.56727 12.6825 4.518 12.5045C4.23579 11.4819 4.23579 10.402 4.518 9.37948C4.56639 9.20188 4.55461 9.01326 4.48451 8.84306C4.41441 8.67285 4.28993 8.53065 4.1305 8.43865L3.22716 7.91698C3.03566 7.80647 2.89589 7.62442 2.83861 7.41086C2.78134 7.1973 2.81124 6.96974 2.92175 6.77823C3.03225 6.58672 3.21431 6.44696 3.42787 6.38968C3.64142 6.3324 3.86899 6.36231 4.0605 6.47281L4.9655 6.99615C5.12515 7.08907 5.31115 7.12632 5.49427 7.10204C5.67739 7.07775 5.84726 6.99331 5.97716 6.86198C6.7189 6.10477 7.65335 5.5645 8.67966 5.29948C8.85936 5.25328 9.0185 5.14844 9.13186 5.00156C9.24522 4.85469 9.30633 4.67418 9.3055 4.48865V3.44531C9.3055 3.2243 9.3933 3.01234 9.54958 2.85606C9.70586 2.69978 9.91782 2.61198 10.1388 2.61198C10.3598 2.61198 10.5718 2.69978 10.7281 2.85606C10.8844 3.01234 10.9722 3.2243 10.9722 3.44531V4.48865C10.9721 4.67361 11.0335 4.85335 11.1468 4.99955C11.2601 5.14574 11.4189 5.25009 11.598 5.29615C12.6247 5.56211 13.5592 6.10355 14.3005 6.86198C14.4301 6.99404 14.5999 7.07922 14.7832 7.10412C14.9665 7.12901 15.1529 7.0922 15.313 6.99948L16.2163 6.47698C16.3111 6.4214 16.416 6.38512 16.5249 6.37023C16.6338 6.35534 16.7445 6.36214 16.8508 6.39023C16.957 6.41832 17.0567 6.46715 17.144 6.53391C17.2313 6.60067 17.3045 6.68403 17.3595 6.77921C17.4144 6.87438 17.45 6.97949 17.4642 7.08847C17.4783 7.19745 17.4708 7.30816 17.442 7.41422C17.4132 7.52028 17.3637 7.6196 17.2964 7.70646C17.2291 7.79331 17.1452 7.86599 17.0497 7.92031L16.1463 8.44198C15.9872 8.53423 15.8631 8.67654 15.7933 8.84673C15.7235 9.01691 15.712 9.2054 15.7605 9.38281V9.38198Z" fill="black"/>
</g>
<defs>
<clipPath id="clip0_1161_3045">
<rect width="20" height="20" fill="white" transform="translate(0.139648 0.945312)"/>
</clipPath>
</defs>
</svg>
