<svg width="17" height="17" viewBox="0 0 17 17" fill="none" xmlns="http://www.w3.org/2000/svg">
<g clip-path="url(#clip0_889_5933)">
<path d="M8.02348 2.18117C8.90782 2.18407 9.7828 2.36233 10.5978 2.70563C11.4128 3.04893 12.1516 3.55045 12.7715 4.18117H10.6901C10.5133 4.18117 10.3438 4.25141 10.2187 4.37643C10.0937 4.50146 10.0235 4.67103 10.0235 4.84784C10.0235 5.02465 10.0937 5.19422 10.2187 5.31924C10.3438 5.44427 10.5133 5.5145 10.6901 5.5145H13.4521C13.7804 5.51433 14.0952 5.38384 14.3273 5.15171C14.5595 4.91958 14.69 4.60479 14.6901 4.27651V1.51451C14.6901 1.3377 14.6199 1.16813 14.4949 1.0431C14.3699 0.918078 14.2003 0.84784 14.0235 0.84784C13.8467 0.84784 13.6771 0.918078 13.5521 1.0431C13.427 1.16813 13.3568 1.3377 13.3568 1.51451V2.89984C12.2549 1.90747 10.8985 1.24145 9.43955 0.97634C7.98056 0.711233 6.47657 0.857515 5.09601 1.3988C3.71545 1.9401 2.51283 2.85502 1.62283 4.04112C0.732829 5.22722 0.190586 6.63767 0.0568245 8.1145C0.0482134 8.20734 0.059035 8.30096 0.0885997 8.38938C0.118164 8.47781 0.165824 8.5591 0.228542 8.62809C0.29126 8.69708 0.36766 8.75225 0.452876 8.79009C0.538092 8.82792 0.630254 8.84759 0.723491 8.84784C0.886549 8.84991 1.04451 8.79106 1.16646 8.6828C1.28841 8.57454 1.36557 8.42466 1.38282 8.2625C1.53123 6.603 2.29481 5.05897 3.52354 3.93373C4.75228 2.80849 6.35736 2.18337 8.02348 2.18117Z" fill="black"/>
<path d="M15.324 8.84771C15.161 8.84563 15.003 8.90448 14.8811 9.01275C14.7591 9.12101 14.6819 9.27089 14.6647 9.43304C14.5545 10.7019 14.0826 11.9125 13.3051 12.9212C12.5276 13.9299 11.4771 14.6945 10.2781 15.1241C9.07918 15.5537 7.78215 15.6304 6.54092 15.3451C5.29969 15.0598 4.16635 14.4244 3.27536 13.5144H5.35669C5.5335 13.5144 5.70307 13.4442 5.82809 13.3191C5.95312 13.1941 6.02336 13.0245 6.02336 12.8477C6.02336 12.6709 5.95312 12.5013 5.82809 12.3763C5.70307 12.2513 5.5335 12.1811 5.35669 12.1811H2.59469C2.43209 12.181 2.27106 12.2129 2.12082 12.2751C1.97058 12.3373 1.83407 12.4285 1.7191 12.5435C1.60412 12.6584 1.51293 12.7949 1.45075 12.9452C1.38856 13.0954 1.3566 13.2565 1.35669 13.4191V16.1811C1.35669 16.3579 1.42693 16.5274 1.55195 16.6525C1.67698 16.7775 1.84655 16.8477 2.02336 16.8477C2.20017 16.8477 2.36974 16.7775 2.49476 16.6525C2.61979 16.5274 2.69002 16.3579 2.69002 16.1811V14.7957C3.79191 15.7881 5.1483 16.4541 6.60729 16.7192C8.06628 16.9843 9.57027 16.8381 10.9508 16.2968C12.3314 15.7555 13.534 14.8405 14.424 13.6544C15.314 12.4683 15.8563 11.0579 15.99 9.58105C15.9986 9.48821 15.9878 9.39459 15.9582 9.30617C15.9287 9.21774 15.881 9.13644 15.8183 9.06745C15.7556 8.99846 15.6792 8.94329 15.594 8.90546C15.5088 8.86763 15.4166 8.84796 15.3234 8.84771H15.324Z" fill="black"/>
</g>
<defs>
<clipPath id="clip0_889_5933">
<rect width="16" height="16" fill="white" transform="translate(0.0234375 0.847656)"/>
</clipPath>
</defs>
</svg>
