<svg width="10" height="11" viewBox="0 0 10 11" fill="none" xmlns="http://www.w3.org/2000/svg">
<path d="M9.49999 0.996934C9.35934 0.85633 9.16861 0.777344 8.96974 0.777344C8.77086 0.777344 8.58013 0.85633 8.43949 0.996934L4.99999 4.43643L1.56049 0.996934C1.41984 0.85633 1.22911 0.777344 1.03024 0.777344C0.831362 0.777344 0.640631 0.85633 0.499985 0.996934C0.359382 1.13758 0.280396 1.32831 0.280396 1.52718C0.280396 1.72606 0.359382 1.91679 0.499985 2.05743L3.93949 5.49693L0.499985 8.93643C0.359382 9.07708 0.280396 9.26781 0.280396 9.46668C0.280396 9.66556 0.359382 9.85629 0.499985 9.99693C0.640631 10.1375 0.831362 10.2165 1.03024 10.2165C1.22911 10.2165 1.41984 10.1375 1.56049 9.99693L4.99999 6.55743L8.43949 9.99693C8.58013 10.1375 8.77086 10.2165 8.96974 10.2165C9.16861 10.2165 9.35934 10.1375 9.49999 9.99693C9.64059 9.85629 9.71957 9.66556 9.71957 9.46668C9.71957 9.26781 9.64059 9.07708 9.49999 8.93643L6.06048 5.49693L9.49999 2.05743C9.64059 1.91679 9.71957 1.72606 9.71957 1.52718C9.71957 1.32831 9.64059 1.13758 9.49999 0.996934Z" fill="black"/>
</svg>
