<svg width="19" height="19" viewBox="0 0 19 19" fill="none" xmlns="http://www.w3.org/2000/svg">
<g clip-path="url(#clip0_846_4996)">
<path d="M2.06445 9.10938H10.3145C10.7123 9.10938 11.0938 8.95134 11.3751 8.67003C11.6564 8.38873 11.8145 8.0072 11.8145 7.60938V2.35938C11.8145 1.96155 11.6564 1.58002 11.3751 1.29871C11.0938 1.01741 10.7123 0.859375 10.3145 0.859375H2.06445C1.66663 0.859375 1.2851 1.01741 1.00379 1.29871C0.722488 1.58002 0.564453 1.96155 0.564453 2.35938L0.564453 7.60938C0.564453 8.0072 0.722488 8.38873 1.00379 8.67003C1.2851 8.95134 1.66663 9.10938 2.06445 9.10938ZM2.06445 2.35938H10.3145V7.60938H2.06445V2.35938Z" fill="#1F1F2D"/>
<path d="M17.0649 0.859375H14.8149C14.4171 0.859375 14.0356 1.01741 13.7543 1.29871C13.473 1.58002 13.3149 1.96155 13.3149 2.35938V7.60938C13.3149 8.0072 13.473 8.38873 13.7543 8.67003C14.0356 8.95134 14.4171 9.10938 14.8149 9.10938H17.0649C17.4628 9.10938 17.8443 8.95134 18.1256 8.67003C18.4069 8.38873 18.5649 8.0072 18.5649 7.60938V2.35938C18.5649 1.96155 18.4069 1.58002 18.1256 1.29871C17.8443 1.01741 17.4628 0.859375 17.0649 0.859375V0.859375ZM17.0649 7.60938H14.8149V2.35938H17.0649V7.60938Z" fill="#1F1F2D"/>
<path d="M4.31445 10.6094H2.06445C1.66663 10.6094 1.2851 10.7674 1.00379 11.0487C0.722488 11.33 0.564453 11.7116 0.564453 12.1094L0.564453 17.3594C0.564453 17.7572 0.722488 18.1387 1.00379 18.42C1.2851 18.7013 1.66663 18.8594 2.06445 18.8594H4.31445C4.71228 18.8594 5.09381 18.7013 5.37511 18.42C5.65642 18.1387 5.81445 17.7572 5.81445 17.3594V12.1094C5.81445 11.7116 5.65642 11.33 5.37511 11.0487C5.09381 10.7674 4.71228 10.6094 4.31445 10.6094ZM4.31445 17.3594H2.06445V12.1094H4.31445V17.3594Z" fill="#1F1F2D"/>
<path d="M17.0645 10.6094H8.81445C8.41663 10.6094 8.0351 10.7674 7.75379 11.0487C7.47249 11.33 7.31445 11.7116 7.31445 12.1094V17.3594C7.31445 17.7572 7.47249 18.1387 7.75379 18.42C8.0351 18.7013 8.41663 18.8594 8.81445 18.8594H17.0645C17.4623 18.8594 17.8438 18.7013 18.1251 18.42C18.4064 18.1387 18.5645 17.7572 18.5645 17.3594V12.1094C18.5645 11.7116 18.4064 11.33 18.1251 11.0487C17.8438 10.7674 17.4623 10.6094 17.0645 10.6094ZM17.0645 17.3594H8.81445V12.1094H17.0645V17.3594Z" fill="#1F1F2D"/>
</g>
<defs>
<clipPath id="clip0_846_4996">
<rect width="18" height="18" fill="white" transform="translate(0.564453 0.859375)"/>
</clipPath>
</defs>
</svg>
