<svg xmlns="http://www.w3.org/2000/svg" width="13.333" height="16" viewBox="0 0 13.333 16">
  <g id="Group_20670" data-name="Group 20670" transform="translate(11115 15941)">
    <path id="fi-rr-copy-alt" d="M9.333,13.333A3.337,3.337,0,0,0,12.667,10V4.162a2.648,2.648,0,0,0-.781-1.886L10.391.781A2.648,2.648,0,0,0,8.5,0H5.333A3.337,3.337,0,0,0,2,3.333V10a3.337,3.337,0,0,0,3.333,3.333ZM3.333,10V3.333a2,2,0,0,1,2-2s3.279.009,3.333.016V2.667A1.333,1.333,0,0,0,10,4h1.317c.007.054.016,6,.016,6a2,2,0,0,1-2,2h-4a2,2,0,0,1-2-2Zm12-4.667v7.333A3.337,3.337,0,0,1,12,16H6a.667.667,0,1,1,0-1.333h6a2,2,0,0,0,2-2V5.333a.667.667,0,0,1,1.333,0Z" transform="translate(-11117 -15941)"/>
    <path id="Path_35004" data-name="Path 35004" d="M1.743,6.5a1.492,1.492,0,0,0,2.111,0l1.6-1.6a.5.5,0,0,0-.7-.7L3.292,5.658V.5a.5.5,0,0,0-.5-.5h0a.5.5,0,0,0-.5.5V5.648L.849,4.2a.5.5,0,1,0-.7.7Z" transform="translate(-11106.863 -15930.225) rotate(180)" stroke="#000" stroke-width="0.5"/>
  </g>
</svg>
