<svg id="fi-rr-chart-histogram" xmlns="http://www.w3.org/2000/svg" width="16" height="16" viewBox="0 0 16 16">
  <path id="Path_35006" data-name="Path 35006" d="M15.333,14.667h-12a2,2,0,0,1-2-2v-12A.667.667,0,1,0,0,.667v12A3.337,3.337,0,0,0,3.333,16h12a.667.667,0,0,0,0-1.333Z" transform="translate(0 0)"/>
  <path id="Path_35007" data-name="Path 35007" d="M5.667,17a.667.667,0,0,0,.667-.667V11.667a.667.667,0,1,0-1.333,0v4.667A.667.667,0,0,0,5.667,17Z" transform="translate(-1.667 -3.667)"/>
  <path id="Path_35008" data-name="Path 35008" d="M10,9.667v6a.667.667,0,1,0,1.333,0v-6a.667.667,0,1,0-1.333,0Z" transform="translate(-3.333 -3)"/>
  <path id="Path_35009" data-name="Path 35009" d="M15,12.667v4a.667.667,0,0,0,1.333,0v-4a.667.667,0,1,0-1.333,0Z" transform="translate(-5 -4)"/>
  <path id="Path_35010" data-name="Path 35010" d="M20,8.667v6.667a.667.667,0,0,0,1.333,0V8.667a.667.667,0,1,0-1.333,0Z" transform="translate(-6.667 -2.667)"/>
  <path id="Path_35011" data-name="Path 35011" d="M5.667,6a.667.667,0,0,0,.471-.2L8.529,3.414a.683.683,0,0,1,.943,0l1.448,1.448a2,2,0,0,0,2.828,0l3.724-3.724A.667.667,0,1,0,16.529.2L12.8,3.919a.667.667,0,0,1-.943,0L10.414,2.471a2,2,0,0,0-2.828,0L5.2,4.862A.667.667,0,0,0,5.667,6Z" transform="translate(-1.667 0)"/>
</svg>
