<svg xmlns="http://www.w3.org/2000/svg" xmlns:xlink="http://www.w3.org/1999/xlink" width="32" height="32" viewBox="0 0 32 32">
  <defs>
    <clipPath id="clip-path">
      <rect id="Rectangle_8" data-name="Rectangle 8" width="32" height="32" transform="translate(58.99 394.381)"/>
    </clipPath>
  </defs>
  <g id="Help" transform="translate(-58.99 -394.381)" clip-path="url(#clip-path)">
    <path id="Path_74" data-name="Path 74" d="M74.99,394.381A16.018,16.018,0,1,0,86.3,399.073a16,16,0,0,0-11.309-4.692Zm0,29.333a13.348,13.348,0,1,1,9.424-3.909A13.334,13.334,0,0,1,74.99,423.714Z" transform="translate(0 0)"/>
    <path id="Path_75" data-name="Path 75" d="M71.28,398.214a5.334,5.334,0,0,0-6.289,5.25,1.333,1.333,0,1,0,2.667,0,2.668,2.668,0,0,1,3.161-2.622,2.7,2.7,0,0,1,2.133,2.126,2.666,2.666,0,0,1-1.333,2.834,5.272,5.272,0,0,0-2.628,4.672v.99a1.333,1.333,0,1,0,2.667,0v-.99a2.641,2.641,0,0,1,1.24-2.336,5.334,5.334,0,0,0-1.617-9.923Z" transform="translate(4.667 2.915)"/>
    <path id="Path_76" data-name="Path 76" d="M69.907,408.464a1.333,1.333,0,1,0-1.333,1.333A1.334,1.334,0,0,0,69.907,408.464Z" transform="translate(6.417 9.917)"/>
  </g>
</svg>
