<svg width="25" height="25" viewBox="0 0 25 25" fill="none" xmlns="http://www.w3.org/2000/svg">
<path d="M0.221436 4.21875C0.221436 2.00961 2.0123 0.21875 4.22144 0.21875H20.2214C22.4306 0.21875 24.2214 2.00961 24.2214 4.21875V20.2188C24.2214 22.4279 22.4306 24.2188 20.2214 24.2188H4.22144C2.0123 24.2188 0.221436 22.4279 0.221436 20.2188V4.21875Z" fill="white"/>
<path fill-rule="evenodd" clip-rule="evenodd" d="M13.4521 13.1415H18.5291C18.7752 13.1415 18.9906 12.9261 18.9906 12.68V11.7569C18.9906 11.5108 18.7752 11.2954 18.5291 11.2954H13.4521C13.2675 11.2954 13.1445 11.1723 13.1445 10.9877V5.91076C13.1445 5.6646 12.9291 5.44922 12.6829 5.44922H11.7598C11.5137 5.44922 11.2983 5.6646 11.2983 5.91076V10.9877C11.2983 11.1723 11.1752 11.2954 10.9906 11.2954H5.91369C5.66753 11.2954 5.45215 11.5108 5.45215 11.7569V12.68C5.45215 12.9261 5.66753 13.1415 5.91369 13.1415H10.9906C11.1752 13.1415 11.2983 13.2646 11.2983 13.4492V18.5261C11.2983 18.7723 11.5137 18.9877 11.7598 18.9877H12.6829C12.9291 18.9877 13.1445 18.7723 13.1445 18.5261V13.4492C13.1445 13.2646 13.2675 13.1415 13.4521 13.1415Z" fill="#1A1A1A"/>
<path d="M4.22144 1.21875H20.2214V-0.78125H4.22144V1.21875ZM23.2214 4.21875V20.2188H25.2214V4.21875H23.2214ZM20.2214 23.2188H4.22144V25.2188H20.2214V23.2188ZM1.22144 20.2188V4.21875H-0.778564V20.2188H1.22144ZM4.22144 23.2188C2.56458 23.2188 1.22144 21.8756 1.22144 20.2188H-0.778564C-0.778564 22.9802 1.46001 25.2188 4.22144 25.2188V23.2188ZM23.2214 20.2188C23.2214 21.8756 21.8783 23.2188 20.2214 23.2188V25.2188C22.9829 25.2188 25.2214 22.9802 25.2214 20.2188H23.2214ZM20.2214 1.21875C21.8783 1.21875 23.2214 2.5619 23.2214 4.21875H25.2214C25.2214 1.45733 22.9829 -0.78125 20.2214 -0.78125V1.21875ZM4.22144 -0.78125C1.46001 -0.78125 -0.778564 1.45733 -0.778564 4.21875H1.22144C1.22144 2.5619 2.56458 1.21875 4.22144 1.21875V-0.78125Z" fill="#DDDBDA"/>
</svg>
