<svg width="21" height="21" viewBox="0 0 21 21" fill="none" xmlns="http://www.w3.org/2000/svg">
<g clip-path="url(#clip0_916_4144)">
<path d="M8.47115 5.5319H19.3045C19.5255 5.5319 19.7375 5.4441 19.8937 5.28782C20.05 5.13154 20.1378 4.91958 20.1378 4.69857C20.1378 4.47755 20.05 4.26559 19.8937 4.10931C19.7375 3.95303 19.5255 3.86523 19.3045 3.86523H8.47115C8.25014 3.86523 8.03818 3.95303 7.8819 4.10931C7.72561 4.26559 7.63782 4.47755 7.63782 4.69857C7.63782 4.91958 7.72561 5.13154 7.8819 5.28782C8.03818 5.4441 8.25014 5.5319 8.47115 5.5319Z" fill="black"/>
<path d="M19.3045 9.69727H8.47115C8.25014 9.69727 8.03818 9.78506 7.8819 9.94134C7.72561 10.0976 7.63782 10.3096 7.63782 10.5306C7.63782 10.7516 7.72561 10.9636 7.8819 11.1199C8.03818 11.2761 8.25014 11.3639 8.47115 11.3639H19.3045C19.5255 11.3639 19.7375 11.2761 19.8937 11.1199C20.05 10.9636 20.1378 10.7516 20.1378 10.5306C20.1378 10.3096 20.05 10.0976 19.8937 9.94134C19.7375 9.78506 19.5255 9.69727 19.3045 9.69727Z" fill="black"/>
<path d="M19.3045 15.5312H8.47115C8.25014 15.5312 8.03818 15.619 7.8819 15.7753C7.72561 15.9316 7.63782 16.1436 7.63782 16.3646C7.63782 16.5856 7.72561 16.7976 7.8819 16.9538C8.03818 17.1101 8.25014 17.1979 8.47115 17.1979H19.3045C19.5255 17.1979 19.7375 17.1101 19.8937 16.9538C20.05 16.7976 20.1378 16.5856 20.1378 16.3646C20.1378 16.1436 20.05 15.9316 19.8937 15.7753C19.7375 15.619 19.5255 15.5312 19.3045 15.5312Z" fill="black"/>
<path d="M5.21032 5.53112C5.29277 5.5311 5.37336 5.50663 5.44189 5.46079C5.51042 5.41495 5.56381 5.34982 5.5953 5.27362C5.6268 5.19743 5.63498 5.1136 5.61881 5.03276C5.60265 4.95191 5.56286 4.87768 5.50449 4.81946L3.47115 2.78696C3.31488 2.63073 3.10296 2.54297 2.88199 2.54297C2.66101 2.54297 2.44909 2.63073 2.29282 2.78696L0.260316 4.81946C0.201944 4.87768 0.162157 4.95191 0.145992 5.03276C0.129826 5.1136 0.138009 5.19743 0.169503 5.27362C0.200998 5.34982 0.254389 5.41495 0.322919 5.46079C0.391448 5.50663 0.472036 5.5311 0.554483 5.53112H2.04948V15.5311H0.554483C0.471965 15.531 0.391262 15.5553 0.322605 15.6011C0.253947 15.6469 0.200426 15.712 0.168828 15.7882C0.137231 15.8645 0.128978 15.9483 0.145117 16.0293C0.161256 16.1102 0.20106 16.1845 0.259482 16.2428L2.29282 18.2753C2.44909 18.4315 2.66101 18.5193 2.88199 18.5193C3.10296 18.5193 3.31488 18.4315 3.47115 18.2753L5.50449 16.2428C5.56286 16.1846 5.60265 16.1103 5.61881 16.0295C5.63498 15.9486 5.6268 15.8648 5.5953 15.7886C5.56381 15.7124 5.51042 15.6473 5.44189 15.6014C5.37336 15.5556 5.29277 15.5311 5.21032 15.5311H3.71615V5.53112H5.21032Z" fill="black"/>
</g>
<defs>
<clipPath id="clip0_916_4144">
<rect width="20" height="20" fill="white" transform="translate(0.137817 0.53125)"/>
</clipPath>
</defs>
</svg>
