<svg width="25" height="25" viewBox="0 0 25 25" fill="none" xmlns="http://www.w3.org/2000/svg">
<path d="M0.221436 4.64258C0.221436 2.43344 2.0123 0.642578 4.22144 0.642578H20.2214C22.4306 0.642578 24.2214 2.43344 24.2214 4.64258V20.6426C24.2214 22.8517 22.4306 24.6426 20.2214 24.6426H4.22144C2.0123 24.6426 0.221436 22.8517 0.221436 20.6426V4.64258Z" fill="white"/>
<path d="M4.22144 1.64258H20.2214V-0.357422H4.22144V1.64258ZM23.2214 4.64258V20.6426H25.2214V4.64258H23.2214ZM20.2214 23.6426H4.22144V25.6426H20.2214V23.6426ZM1.22144 20.6426V4.64258H-0.778564V20.6426H1.22144ZM4.22144 23.6426C2.56458 23.6426 1.22144 22.2994 1.22144 20.6426H-0.778564C-0.778564 23.404 1.46001 25.6426 4.22144 25.6426V23.6426ZM23.2214 20.6426C23.2214 22.2994 21.8783 23.6426 20.2214 23.6426V25.6426C22.9829 25.6426 25.2214 23.404 25.2214 20.6426H23.2214ZM20.2214 1.64258C21.8783 1.64258 23.2214 2.98572 23.2214 4.64258H25.2214C25.2214 1.88115 22.9829 -0.357422 20.2214 -0.357422V1.64258ZM4.22144 -0.357422C1.46001 -0.357422 -0.778564 1.88116 -0.778564 4.64258H1.22144C1.22144 2.98572 2.56458 1.64258 4.22144 1.64258V-0.357422Z" fill="#AAAAAA"/>
</svg>
