<svg width="19" height="19" viewBox="0 0 19 19" fill="none" xmlns="http://www.w3.org/2000/svg">
<g clip-path="url(#clip0_846_9620)">
<path d="M12.835 6.658H5.33496V5.908C5.33473 5.07656 5.61083 4.26861 6.11985 3.61118C6.62887 2.95376 7.34194 2.48415 8.14696 2.27617C8.95198 2.0682 9.80329 2.13366 10.567 2.46227C11.3308 2.79087 11.9637 3.36399 12.3662 4.0915C12.414 4.17763 12.4783 4.2535 12.5555 4.31478C12.6326 4.37605 12.7211 4.42154 12.8158 4.44863C12.9105 4.47572 13.0096 4.48389 13.1075 4.47267C13.2054 4.46146 13.3001 4.43107 13.3862 4.38325C13.4723 4.33544 13.5482 4.27112 13.6095 4.19398C13.6708 4.11684 13.7162 4.02839 13.7433 3.93368C13.7704 3.83896 13.7786 3.73984 13.7674 3.64196C13.7562 3.54409 13.7258 3.44938 13.678 3.36325C13.1142 2.34499 12.228 1.54294 11.1587 1.08319C10.0895 0.623434 8.89774 0.53204 7.77087 0.823374C6.644 1.11471 5.64589 1.77225 4.93343 2.69264C4.22098 3.61303 3.83457 4.74408 3.83496 5.908V6.976C3.16698 7.26753 2.59843 7.7474 2.19884 8.35691C1.79924 8.96643 1.58592 9.67918 1.58496 10.408V14.908C1.58615 15.9022 1.98162 16.8553 2.68463 17.5583C3.38763 18.2613 4.34077 18.6568 5.33496 18.658H12.835C13.8292 18.6568 14.7823 18.2613 15.4853 17.5583C16.1883 16.8553 16.5838 15.9022 16.585 14.908V10.408C16.5838 9.41381 16.1883 8.46067 15.4853 7.75767C14.7823 7.05467 13.8292 6.65919 12.835 6.658ZM15.085 14.908C15.085 15.5047 14.8479 16.077 14.426 16.499C14.004 16.921 13.4317 17.158 12.835 17.158H5.33496C4.73822 17.158 4.16593 16.921 3.74397 16.499C3.32201 16.077 3.08496 15.5047 3.08496 14.908V10.408C3.08496 9.81127 3.32201 9.23897 3.74397 8.81701C4.16593 8.39506 4.73822 8.158 5.33496 8.158H12.835C13.4317 8.158 14.004 8.39506 14.426 8.81701C14.8479 9.23897 15.085 9.81127 15.085 10.408V14.908Z" fill="#fff"/>
<path d="M9.08496 11.1582C8.88605 11.1582 8.69528 11.2372 8.55463 11.3779C8.41398 11.5185 8.33496 11.7093 8.33496 11.9082V13.4082C8.33496 13.6071 8.41398 13.7979 8.55463 13.9385C8.69528 14.0792 8.88605 14.1582 9.08496 14.1582C9.28387 14.1582 9.47464 14.0792 9.61529 13.9385C9.75594 13.7979 9.83496 13.6071 9.83496 13.4082V11.9082C9.83496 11.7093 9.75594 11.5185 9.61529 11.3779C9.47464 11.2372 9.28387 11.1582 9.08496 11.1582Z" fill="#fff"/>
</g>
<defs>
<clipPath id="clip0_846_9620">
<rect width="18" height="18" fill="white" transform="translate(0.0849609 0.658203)"/>
</clipPath>
</defs>
</svg>
