<svg width="19" height="19" viewBox="0 0 19 19" fill="none" xmlns="http://www.w3.org/2000/svg">
<g clip-path="url(#clip0_846_6092)">
<path d="M17.8147 12.9902C17.6158 12.9902 17.425 13.0693 17.2843 13.2099C17.1437 13.3506 17.0647 13.5413 17.0647 13.7403V15.2403C17.0647 15.8371 16.8276 16.4094 16.4056 16.8314C15.9836 17.2534 15.4113 17.4904 14.8146 17.4904H13.3145C13.1156 17.4904 12.9248 17.5695 12.7841 17.7101C12.6435 17.8508 12.5645 18.0416 12.5645 18.2405C12.5645 18.4394 12.6435 18.6302 12.7841 18.7708C12.9248 18.9115 13.1156 18.9905 13.3145 18.9905H14.8146C15.8088 18.9893 16.762 18.5938 17.465 17.8908C18.168 17.1878 18.5635 16.2346 18.5647 15.2403V13.7403C18.5647 13.5413 18.4857 13.3506 18.345 13.2099C18.2044 13.0693 18.0136 12.9902 17.8147 12.9902Z" fill="#fff"/>
<path d="M1.31445 6.99023C1.51337 6.99023 1.70413 6.91122 1.84478 6.77056C1.98544 6.62991 2.06445 6.43915 2.06445 6.24023V4.74023C2.06445 4.1435 2.30151 3.5712 2.72346 3.14924C3.14542 2.72729 3.71772 2.49023 4.31445 2.49023H5.81445C6.01337 2.49023 6.20413 2.41122 6.34478 2.27056C6.48544 2.12991 6.56445 1.93915 6.56445 1.74023C6.56445 1.54132 6.48544 1.35056 6.34478 1.2099C6.20413 1.06925 6.01337 0.990234 5.81445 0.990234H4.31445C3.32026 0.991425 2.36712 1.3869 1.66412 2.0899C0.961115 2.7929 0.565644 3.74604 0.564453 4.74023L0.564453 6.24023C0.564453 6.43915 0.643471 6.62991 0.784123 6.77056C0.924775 6.91122 1.11554 6.99023 1.31445 6.99023Z" fill="#fff"/>
<path d="M5.81457 17.4904H4.31454C3.71779 17.4904 3.14548 17.2534 2.72351 16.8314C2.30155 16.4094 2.06449 15.8371 2.06449 15.2403V13.7403C2.06449 13.5413 1.98547 13.3506 1.84481 13.2099C1.70416 13.0693 1.51339 12.9902 1.31447 12.9902C1.11555 12.9902 0.924784 13.0693 0.784128 13.2099C0.643473 13.3506 0.564453 13.5413 0.564453 13.7403L0.564453 15.2403C0.565644 16.2346 0.961124 17.1878 1.66414 17.8908C2.36716 18.5938 3.32032 18.9893 4.31454 18.9905H5.81457C6.01349 18.9905 6.20426 18.9115 6.34492 18.7708C6.48557 18.6302 6.56459 18.4394 6.56459 18.2405C6.56459 18.0416 6.48557 17.8508 6.34492 17.7101C6.20426 17.5695 6.01349 17.4904 5.81457 17.4904Z" fill="#fff"/>
<path d="M14.8146 0.990234H13.3145C13.1156 0.990234 12.9248 1.06925 12.7841 1.20991C12.6435 1.35056 12.5645 1.54133 12.5645 1.74025C12.5645 1.93917 12.6435 2.12994 12.7841 2.27059C12.9248 2.41125 13.1156 2.49027 13.3145 2.49027H14.8146C15.4113 2.49027 15.9836 2.72733 16.4056 3.14929C16.8276 3.57126 17.0647 4.14357 17.0647 4.74032V6.24035C17.0647 6.43927 17.1437 6.63004 17.2843 6.7707C17.425 6.91135 17.6158 6.99037 17.8147 6.99037C18.0136 6.99037 18.2044 6.91135 18.345 6.7707C18.4857 6.63004 18.5647 6.43927 18.5647 6.24035V4.74032C18.5635 3.7461 18.168 2.79294 17.465 2.08992C16.762 1.3869 15.8088 0.991425 14.8146 0.990234V0.990234Z" fill="#fff"/>
<path d="M9.56445 9.2403C10.1578 9.2403 10.7378 9.06436 11.2312 8.73471C11.7245 8.40506 12.109 7.93652 12.3361 7.38833C12.5632 6.84015 12.6226 6.23694 12.5068 5.65499C12.3911 5.07304 12.1053 4.53849 11.6858 4.11893C11.2662 3.69936 10.7317 3.41364 10.1497 3.29788C9.56778 3.18212 8.96458 3.24153 8.4164 3.4686C7.86822 3.69567 7.39969 4.08019 7.07004 4.57354C6.7404 5.06689 6.56445 5.64692 6.56445 6.24027C6.56445 7.03593 6.88052 7.799 7.44313 8.36161C8.00574 8.92423 8.7688 9.2403 9.56445 9.2403ZM9.56445 4.74025C9.86113 4.74025 10.1511 4.82823 10.3978 4.99305C10.6445 5.15788 10.8367 5.39215 10.9503 5.66624C11.0638 5.94033 11.0935 6.24193 11.0356 6.53291C10.9778 6.82388 10.8349 7.09116 10.6251 7.30094C10.4153 7.51072 10.1481 7.65359 9.85709 7.71146C9.56612 7.76934 9.26452 7.73964 8.99043 7.62611C8.71634 7.51257 8.48207 7.32031 8.31725 7.07363C8.15243 6.82696 8.06445 6.53695 8.06445 6.24027C8.06445 5.84244 8.22249 5.46091 8.50379 5.1796C8.7851 4.89829 9.16663 4.74025 9.56445 4.74025Z" fill="#fff"/>
<path d="M14.0646 15.9902C14.2635 15.9902 14.4543 15.9112 14.5949 15.7706C14.7356 15.6299 14.8146 15.4391 14.8146 15.2402C14.8134 14.0471 14.3389 12.9032 13.4952 12.0596C12.6516 11.2159 11.5077 10.7414 10.3145 10.7402H8.81451C7.62139 10.7414 6.47747 11.2159 5.63381 12.0596C4.79014 12.9032 4.31564 14.0471 4.31445 15.2402C4.31445 15.4391 4.39347 15.6299 4.53413 15.7706C4.67478 15.9112 4.86555 15.9902 5.06446 15.9902C5.26338 15.9902 5.45415 15.9112 5.5948 15.7706C5.73545 15.6299 5.81447 15.4391 5.81447 15.2402C5.81447 14.4446 6.13055 13.6815 6.69316 13.1189C7.25578 12.5563 8.01885 12.2402 8.81451 12.2402H10.3145C11.1102 12.2402 11.8733 12.5563 12.4359 13.1189C12.9985 13.6815 13.3146 14.4446 13.3146 15.2402C13.3146 15.4391 13.3936 15.6299 13.5342 15.7706C13.6749 15.9112 13.8657 15.9902 14.0646 15.9902Z" fill="#fff"/>
</g>
<defs>
<clipPath id="clip0_846_6092">
<rect width="18" height="18" fill="white" transform="translate(0.564453 0.990234)"/>
</clipPath>
</defs>
</svg>
