<svg width="19" height="19" viewBox="0 0 19 19" fill="none" xmlns="http://www.w3.org/2000/svg">
<g clip-path="url(#clip0_846_8454)">
<path d="M18.085 8.00591C18.085 7.95116 18.079 7.89658 18.067 7.84316L17.092 3.44217C16.9108 2.60685 16.448 1.85921 15.7811 1.32461C15.1142 0.790008 14.2837 0.500957 13.429 0.505922H4.74097C3.88676 0.501647 3.05701 0.791013 2.39071 1.32556C1.72441 1.8601 1.26201 2.60735 1.08096 3.44217L0.102962 7.84316C0.090968 7.89658 0.0849312 7.95116 0.084962 8.00591V8.75591C0.0843569 9.4861 0.351153 10.1912 0.834963 10.7382V14.7559C0.836154 15.7501 1.23163 16.7032 1.93463 17.4062C2.63763 18.1092 3.59077 18.5047 4.58497 18.5059H13.585C14.5792 18.5047 15.5323 18.1092 16.2353 17.4062C16.9383 16.7032 17.3338 15.7501 17.335 14.7559V10.7382C17.8188 10.1912 18.0856 9.4861 18.085 8.75591V8.00591ZM1.58496 8.08766L2.54497 3.76767C2.65375 3.26686 2.93123 2.8186 3.33098 2.4979C3.73072 2.1772 4.22848 2.00352 4.74097 2.00592H5.33497V4.25592C5.33497 4.45483 5.41399 4.64559 5.55464 4.78625C5.69529 4.9269 5.88606 5.00592 6.08497 5.00592C6.28388 5.00592 6.47465 4.9269 6.6153 4.78625C6.75595 4.64559 6.83497 4.45483 6.83497 4.25592V2.00592H11.335V4.25592C11.335 4.45483 11.414 4.64559 11.5546 4.78625C11.6953 4.9269 11.8861 5.00592 12.085 5.00592C12.2839 5.00592 12.4747 4.9269 12.6153 4.78625C12.756 4.64559 12.835 4.45483 12.835 4.25592V2.00592H13.429C13.9415 2.00352 14.4392 2.1772 14.839 2.4979C15.2387 2.8186 15.5162 3.26686 15.625 3.76767L16.585 8.08766V8.75591C16.585 9.15374 16.427 9.53526 16.1456 9.81657C15.8643 10.0979 15.4828 10.2559 15.085 10.2559H14.335C13.9372 10.2559 13.5556 10.0979 13.2743 9.81657C12.993 9.53526 12.835 9.15374 12.835 8.75591C12.835 8.557 12.756 8.36623 12.6153 8.22558C12.4747 8.08493 12.2839 8.00591 12.085 8.00591C11.8861 8.00591 11.6953 8.08493 11.5546 8.22558C11.414 8.36623 11.335 8.557 11.335 8.75591C11.335 9.15374 11.1769 9.53526 10.8956 9.81657C10.6143 10.0979 10.2328 10.2559 9.83498 10.2559H8.33497C7.93715 10.2559 7.55562 10.0979 7.27431 9.81657C6.99301 9.53526 6.83497 9.15374 6.83497 8.75591C6.83497 8.557 6.75595 8.36623 6.6153 8.22558C6.47465 8.08493 6.28388 8.00591 6.08497 8.00591C5.88606 8.00591 5.69529 8.08493 5.55464 8.22558C5.41399 8.36623 5.33497 8.557 5.33497 8.75591C5.33497 9.15374 5.17693 9.53526 4.89563 9.81657C4.61432 10.0979 4.23279 10.2559 3.83497 10.2559H3.08497C2.68714 10.2559 2.30561 10.0979 2.0243 9.81657C1.743 9.53526 1.58496 9.15374 1.58496 8.75591V8.08766ZM13.585 17.0059H4.58497C3.98823 17.0059 3.41593 16.7688 2.99398 16.3469C2.57202 15.9249 2.33497 15.3526 2.33497 14.7559V11.6607C2.57992 11.7241 2.83194 11.7561 3.08497 11.7559H3.83497C4.26083 11.7561 4.68183 11.6655 5.06985 11.4899C5.45786 11.3144 5.80394 11.0581 6.08497 10.7382C6.366 11.0581 6.71208 11.3144 7.10009 11.4899C7.48811 11.6655 7.90911 11.7561 8.33497 11.7559H9.83498C10.2608 11.7561 10.6818 11.6655 11.0699 11.4899C11.4579 11.3144 11.804 11.0581 12.085 10.7382C12.366 11.0581 12.7121 11.3144 13.1001 11.4899C13.4881 11.6655 13.9091 11.7561 14.335 11.7559H15.085C15.338 11.7561 15.59 11.7241 15.835 11.6607V14.7559C15.835 15.3526 15.5979 15.9249 15.176 16.3469C14.754 16.7688 14.1817 17.0059 13.585 17.0059Z" fill="black"/>
</g>
<defs>
<clipPath id="clip0_846_8454">
<rect width="18" height="18" fill="white" transform="translate(0.0849609 0.505859)"/>
</clipPath>
</defs>
</svg>
