<svg width="19" height="21" viewBox="0 0 19 21" fill="none" xmlns="http://www.w3.org/2000/svg">
<path d="M11.1106 20.8711C10.9303 20.8711 10.7548 20.8126 10.6106 20.7044L7.27726 18.2044C7.17377 18.1268 7.08976 18.0262 7.03191 17.9104C6.97405 17.7947 6.94393 17.6671 6.94393 17.5378V12.8544L1.09726 6.27693C0.682028 5.80849 0.410911 5.23011 0.316495 4.61129C0.222079 3.99247 0.308382 3.35955 0.565031 2.7886C0.82168 2.21766 1.23775 1.73298 1.76325 1.39282C2.28874 1.05265 2.90128 0.871489 3.52726 0.871094H15.3606C15.9865 0.871828 16.5989 1.05329 17.1242 1.39368C17.6495 1.73407 18.0653 2.2189 18.3217 2.78991C18.578 3.36093 18.6641 3.99382 18.5694 4.61255C18.4748 5.23128 18.2035 5.80951 17.7881 6.27776L11.9439 12.8544V20.0378C11.9439 20.2588 11.8561 20.4707 11.6999 20.627C11.5436 20.7833 11.3316 20.8711 11.1106 20.8711ZM8.6106 17.1211L10.2773 18.3711V12.5378C10.2774 12.3337 10.3524 12.1368 10.4881 11.9844L16.5448 5.17026C16.7467 4.942 16.8785 4.66029 16.9243 4.35897C16.9701 4.05765 16.9279 3.74951 16.8029 3.47156C16.6779 3.1936 16.4753 2.95764 16.2194 2.792C15.9636 2.62636 15.6654 2.53808 15.3606 2.53776H3.52726C3.22264 2.53822 2.92461 2.62655 2.66893 2.79215C2.41325 2.95775 2.21077 3.19359 2.08577 3.47139C1.96077 3.74918 1.91856 4.05714 1.9642 4.35833C2.00984 4.65951 2.1414 4.94114 2.3431 5.16943L8.4006 11.9844C8.53594 12.137 8.61066 12.3338 8.6106 12.5378V17.1211Z" fill="#1F1F2D"/>
</svg>
