<svg width="19" height="19" viewBox="0 0 19 19" fill="none" xmlns="http://www.w3.org/2000/svg">
<g clip-path="url(#clip0_846_7285)">
<path d="M5.81348 18.0567C6.6419 18.0567 7.31348 17.3851 7.31348 16.5567C7.31348 15.7282 6.6419 15.0566 5.81348 15.0566C4.98505 15.0566 4.31348 15.7282 4.31348 16.5567C4.31348 17.3851 4.98505 18.0567 5.81348 18.0567Z" fill="#fff"/>
<path d="M13.3135 18.0567C14.1419 18.0567 14.8135 17.3851 14.8135 16.5567C14.8135 15.7282 14.1419 15.0566 13.3135 15.0566C12.485 15.0566 11.8135 15.7282 11.8135 16.5567C11.8135 17.3851 12.485 18.0567 13.3135 18.0567Z" fill="#fff"/>
<path d="M18.3271 1.05943C18.1865 0.91883 17.9958 0.839844 17.7969 0.839844C17.598 0.839844 17.4073 0.91883 17.2666 1.05943L13.3974 4.93243L12.2341 3.71818C12.1659 3.64717 12.0843 3.5903 11.9941 3.55081C11.9038 3.51132 11.8067 3.49 11.7082 3.48805C11.6098 3.4861 11.5119 3.50356 11.4201 3.53944C11.3284 3.57533 11.2447 3.62893 11.1736 3.69718C11.1026 3.76544 11.0458 3.84701 11.0063 3.93724C10.9668 4.02748 10.9455 4.12461 10.9435 4.22308C10.9396 4.42197 11.0148 4.61427 11.1526 4.75768L12.3631 6.01693C12.4921 6.15625 12.648 6.26795 12.8214 6.3453C12.9948 6.42265 13.1821 6.46402 13.3719 6.46693H13.3966C13.5827 6.46754 13.767 6.4312 13.9389 6.36C14.1108 6.2888 14.2668 6.18417 14.3979 6.05218L18.3271 2.11993C18.4677 1.97929 18.5467 1.78856 18.5467 1.58968C18.5467 1.39081 18.4677 1.20008 18.3271 1.05943Z" fill="#fff"/>
<path d="M16.9885 6.81864C16.8915 6.80112 16.792 6.80288 16.6957 6.82382C16.5995 6.84476 16.5082 6.88447 16.4273 6.94068C16.3464 6.99689 16.2773 7.06849 16.2241 7.1514C16.1708 7.23432 16.1344 7.32691 16.117 7.42389L16.021 7.95564C15.9274 8.47488 15.6544 8.94473 15.2495 9.28308C14.8447 9.62142 14.3338 9.80674 13.8062 9.80664H4.62698L3.92198 3.80664H8.81348C9.01239 3.80664 9.20315 3.72762 9.34381 3.58697C9.48446 3.44632 9.56348 3.25555 9.56348 3.05664C9.56348 2.85773 9.48446 2.66696 9.34381 2.52631C9.20315 2.38566 9.01239 2.30664 8.81348 2.30664H3.74498L3.71348 2.04264C3.64884 1.49559 3.38577 0.991256 2.97412 0.625219C2.56246 0.259181 2.03083 0.0568753 1.47998 0.0566406L1.31348 0.0566406C1.11456 0.0566406 0.923799 0.135658 0.783146 0.276311C0.642494 0.416963 0.563477 0.607728 0.563477 0.806641C0.563477 1.00555 0.642494 1.19632 0.783146 1.33697C0.923799 1.47762 1.11456 1.55664 1.31348 1.55664H1.47998C1.66368 1.55666 1.84098 1.62411 1.97826 1.74618C2.11553 1.86825 2.20323 2.03645 2.22473 2.21889L3.25673 10.9939C3.36387 11.9065 3.80233 12.748 4.48891 13.3586C5.17548 13.9693 6.06237 14.3067 6.98123 14.3066H14.8135C15.0124 14.3066 15.2032 14.2276 15.3438 14.087C15.4845 13.9463 15.5635 13.7556 15.5635 13.5566C15.5635 13.3577 15.4845 13.167 15.3438 13.0263C15.2032 12.8857 15.0124 12.8066 14.8135 12.8066H6.98123C6.51587 12.8067 6.06193 12.6625 5.68193 12.3939C5.30194 12.1252 5.0146 11.7454 4.85948 11.3066H13.8062C14.6854 11.3067 15.5367 10.9978 16.2113 10.434C16.886 9.87012 17.341 9.08716 17.497 8.22189L17.593 7.68939C17.6282 7.49378 17.5843 7.29219 17.4709 7.12893C17.3576 6.96566 17.184 6.85406 16.9885 6.81864Z" fill="#fff"/>
</g>
<defs>
<clipPath id="clip0_846_7285">
<rect width="18" height="18" fill="white" transform="translate(0.563477 0.0566406)"/>
</clipPath>
</defs>
</svg>
