<svg width="25" height="25" viewBox="0 0 25 25" fill="none" xmlns="http://www.w3.org/2000/svg">
<path d="M0.221436 4.17578C0.221436 1.96664 2.0123 0.175781 4.22144 0.175781H20.2214C22.4306 0.175781 24.2214 1.96664 24.2214 4.17578V20.1758C24.2214 22.3849 22.4306 24.1758 20.2214 24.1758H4.22144C2.0123 24.1758 0.221436 22.3849 0.221436 20.1758V4.17578Z" fill="#1A1A1A"/>
<path fill-rule="evenodd" clip-rule="evenodd" d="M10.0523 17.5443L4.97538 12.4366C4.79076 12.252 4.79076 11.9443 4.97538 11.7596L5.6523 11.0827C5.83691 10.8981 6.14461 10.8981 6.32922 11.0827L10.1446 14.9289C10.2677 15.052 10.4831 15.052 10.6061 14.9289L18.0831 7.39041C18.2677 7.2058 18.5754 7.2058 18.76 7.39041L19.4369 8.06734C19.6215 8.25195 19.6215 8.55965 19.4369 8.74426L10.7292 17.5443C10.5446 17.7596 10.2369 17.7596 10.0523 17.5443Z" fill="white"/>
</svg>
