<svg width="21" height="21" viewBox="0 0 21 21" fill="none" xmlns="http://www.w3.org/2000/svg">
<path d="M20.2084 19.46L15.2383 14.4899C16.5927 12.8334 17.2586 10.7198 17.0983 8.58606C16.938 6.45237 15.9637 4.46193 14.377 3.02643C12.7903 1.59093 10.7125 0.82022 8.5735 0.873702C6.43446 0.927185 4.39781 1.80077 2.88482 3.31377C1.37182 4.82677 0.49823 6.86342 0.444747 9.00245C0.391264 11.1415 1.16198 13.2193 2.59748 14.806C4.03297 16.3927 6.02342 17.367 8.15711 17.5273C10.2908 17.6876 12.4045 17.0217 14.061 15.6673L19.031 20.6374C19.1881 20.789 19.3984 20.873 19.6167 20.8711C19.835 20.8692 20.0439 20.7816 20.1983 20.6272C20.3526 20.4728 20.4402 20.264 20.4421 20.0457C20.444 19.8274 20.3601 19.617 20.2084 19.46ZM8.79528 15.8854C7.47782 15.8854 6.18995 15.4948 5.09452 14.7628C3.99909 14.0309 3.14531 12.9905 2.64114 11.7734C2.13697 10.5562 2.00506 9.21685 2.26208 7.9247C2.51911 6.63256 3.15352 5.44565 4.08511 4.51406C5.01669 3.58248 6.2036 2.94806 7.49575 2.69104C8.78789 2.43401 10.1272 2.56593 11.3444 3.0701C12.5616 3.57427 13.6019 4.42805 14.3339 5.52348C15.0658 6.6189 15.4565 7.90678 15.4565 9.22424C15.4545 10.9903 14.7521 12.6834 13.5033 13.9322C12.2545 15.181 10.5613 15.8834 8.79528 15.8854Z" fill="#6e707e"/>
</svg>
