<svg xmlns="http://www.w3.org/2000/svg" width="12" height="16" viewBox="0 0 12 16">
  <g id="Group_20673" data-name="Group 20673" transform="translate(11626 15042)">
    <g id="fi-rr-receipt" transform="translate(-11626 -15042)">
      <path id="Path_35012" data-name="Path 35012" d="M11.667,0H6.333A3.337,3.337,0,0,0,3,3.333v12a.667.667,0,0,0,1.043.55l1.4-.959,1.4.959a.667.667,0,0,0,.753,0L9,14.924l1.4.959a.667.667,0,0,0,.754,0l1.4-.959,1.4.958A.667.667,0,0,0,15,15.333v-12A3.337,3.337,0,0,0,11.667,0Zm2,14.067-.733-.5a.667.667,0,0,0-.755,0l-1.4.959-1.4-.959a.667.667,0,0,0-.754,0l-1.4.959-1.4-.959a.667.667,0,0,0-.753,0l-.739.5V3.333a2,2,0,0,1,2-2h5.333a2,2,0,0,1,2,2Z" transform="translate(-3)"/>
    </g>
    <path id="Path_35013" data-name="Path 35013" d="M.349-10.206H5.162v.01a7.466,7.466,0,0,1-.48.7H3.4a1.68,1.68,0,0,1,.36.756H5.127q.025.005.025.02-.46.691-.47.691H3.791a2.043,2.043,0,0,1-.34.856,2.091,2.091,0,0,1-.786.656,3.106,3.106,0,0,1-1.341.335v.01a1.854,1.854,0,0,0,.315.415L4.016-2.89v.135q0,.02-.025.02H2.946Q.123-6.023.123-6.038V-6.7l.01-.025a4.279,4.279,0,0,0,.585.035q1.581,0,1.967-1.026a.828.828,0,0,0,.06-.31H-.117a.018.018,0,0,1-.02-.02Q.339-8.74.349-8.74H2.62v-.01a1.332,1.332,0,0,0-.756-.615,2.358,2.358,0,0,0-.721-.13H-.127v-.025Q.334-10.206.349-10.206Z" transform="translate(-11622.53 -15027.932)"/>
  </g>
</svg>
