<svg width="20" height="20" viewBox="0 0 20 20" fill="none" xmlns="http://www.w3.org/2000/svg">
<path d="M19.3899 0.699563C19.2415 0.551148 19.0402 0.467773 18.8302 0.467773C18.6203 0.467773 18.419 0.551148 18.2705 0.699563L10.1219 8.84819L1.97328 0.699563C1.82482 0.551148 1.62349 0.467773 1.41357 0.467773C1.20365 0.467773 1.00232 0.551148 0.85386 0.699563V0.699563C0.705445 0.848022 0.62207 1.04935 0.62207 1.25927C0.62207 1.46919 0.705445 1.67052 0.85386 1.81898L9.00248 9.9676L0.85386 18.1162C0.705445 18.2647 0.62207 18.466 0.62207 18.6759C0.62207 18.8859 0.705445 19.0872 0.85386 19.2356V19.2356C1.00232 19.3841 1.20365 19.4674 1.41357 19.4674C1.62349 19.4674 1.82482 19.3841 1.97328 19.2356L10.1219 11.087L18.2705 19.2356C18.419 19.3841 18.6203 19.4674 18.8302 19.4674C19.0402 19.4674 19.2415 19.3841 19.3899 19.2356C19.5384 19.0872 19.6217 18.8859 19.6217 18.6759C19.6217 18.466 19.5384 18.2647 19.3899 18.1162L11.2413 9.9676L19.3899 1.81898C19.5384 1.67052 19.6217 1.46919 19.6217 1.25927C19.6217 1.04935 19.5384 0.848022 19.3899 0.699563V0.699563Z" fill="#EA4335"/>
</svg>
