<svg width="26" height="26" viewBox="0 0 26 26" fill="none" xmlns="http://www.w3.org/2000/svg">
<circle cx="13.2695" cy="12.5737" r="12.5" fill="#F95556"/>
<g clip-path="url(#clip0_422_9208)">
<path d="M13.2695 5.07373C11.7862 5.07373 10.3361 5.5136 9.10276 6.33771C7.86939 7.16182 6.9081 8.33316 6.34044 9.7036C5.77278 11.074 5.62426 12.582 5.91365 14.0369C6.20303 15.4918 6.91734 16.8281 7.96623 17.877C9.01513 18.9259 10.3515 19.6402 11.8064 19.9296C13.2612 20.219 14.7692 20.0705 16.1397 19.5028C17.5101 18.9352 18.6814 17.9739 19.5056 16.7405C20.3297 15.5071 20.7695 14.0571 20.7695 12.5737C20.7674 10.5853 19.9765 8.67886 18.5705 7.2728C17.1644 5.86675 15.258 5.07588 13.2695 5.07373V5.07373ZM13.2695 18.8237C12.0334 18.8237 10.825 18.4572 9.79722 17.7704C8.76941 17.0837 7.96834 16.1075 7.49529 14.9655C7.02224 13.8235 6.89847 12.5668 7.13963 11.3544C7.38078 10.142 7.97604 9.02839 8.85012 8.15431C9.7242 7.28023 10.8378 6.68498 12.0502 6.44382C13.2626 6.20266 14.5193 6.32644 15.6613 6.79948C16.8033 7.27253 17.7795 8.07361 18.4662 9.10142C19.153 10.1292 19.5195 11.3376 19.5195 12.5737C19.5177 14.2308 18.8587 15.8194 17.6869 16.9911C16.5152 18.1628 14.9266 18.8219 13.2695 18.8237V18.8237Z" fill="white"/>
<path d="M13.2695 8.19873C13.1038 8.19873 12.9448 8.26458 12.8276 8.38179C12.7104 8.499 12.6445 8.65797 12.6445 8.82373V13.8237C12.6445 13.9895 12.7104 14.1485 12.8276 14.2657C12.9448 14.3829 13.1038 14.4487 13.2695 14.4487C13.4353 14.4487 13.5943 14.3829 13.7115 14.2657C13.8287 14.1485 13.8945 13.9895 13.8945 13.8237V8.82373C13.8945 8.65797 13.8287 8.499 13.7115 8.38179C13.5943 8.26458 13.4353 8.19873 13.2695 8.19873Z" fill="white"/>
<path d="M13.8945 16.3237C13.8945 15.9786 13.6147 15.6987 13.2695 15.6987C12.9244 15.6987 12.6445 15.9786 12.6445 16.3237C12.6445 16.6689 12.9244 16.9487 13.2695 16.9487C13.6147 16.9487 13.8945 16.6689 13.8945 16.3237Z" fill="white"/>
</g>
<defs>
<clipPath id="clip0_422_9208">
<rect width="15" height="15" fill="white" transform="translate(5.76953 5.07373)"/>
</clipPath>
</defs>
</svg>
