<svg width="16" height="16" viewBox="0 0 16 16" fill="none" xmlns="http://www.w3.org/2000/svg">
<g clip-path="url(#clip0_422_9211)">
<path d="M8.26954 0.0737305C6.78618 0.0737305 5.33613 0.513598 4.10276 1.33771C2.86939 2.16182 1.9081 3.33316 1.34044 4.7036C0.772781 6.07405 0.624256 7.58205 0.913645 9.0369C1.20303 10.4918 1.91734 11.8281 2.96623 12.877C4.01513 13.9259 5.3515 14.6402 6.80636 14.9296C8.26122 15.219 9.76922 15.0705 11.1397 14.5028C12.5101 13.9352 13.6814 12.9739 14.5056 11.7405C15.3297 10.5071 15.7695 9.05709 15.7695 7.57373C15.7674 5.58526 14.9765 3.67886 13.5705 2.2728C12.1644 0.866748 10.258 0.0758811 8.26954 0.0737305V0.0737305ZM8.26954 13.8237C7.0334 13.8237 5.82503 13.4572 4.79722 12.7704C3.76941 12.0837 2.96834 11.1075 2.49529 9.9655C2.02224 8.82346 1.89847 7.56679 2.13963 6.35441C2.38078 5.14203 2.97604 4.02839 3.85012 3.15431C4.7242 2.28023 5.83784 1.68498 7.05022 1.44382C8.2626 1.20266 9.51927 1.32644 10.6613 1.79948C11.8033 2.27253 12.7795 3.07361 13.4662 4.10142C14.153 5.12922 14.5195 6.33759 14.5195 7.57373C14.5177 9.23077 13.8587 10.8194 12.6869 11.9911C11.5152 13.1628 9.92658 13.8219 8.26954 13.8237Z" fill="white"/>
<path d="M8.26953 3.19873C8.10377 3.19873 7.9448 3.26458 7.82759 3.38179C7.71038 3.499 7.64453 3.65797 7.64453 3.82373V8.82374C7.64453 8.9895 7.71038 9.14847 7.82759 9.26568C7.9448 9.38289 8.10377 9.44874 8.26953 9.44874C8.43529 9.44874 8.59426 9.38289 8.71147 9.26568C8.82868 9.14847 8.89453 8.9895 8.89453 8.82374V3.82373C8.89453 3.65797 8.82868 3.499 8.71147 3.38179C8.59426 3.26458 8.43529 3.19873 8.26953 3.19873Z" fill="white"/>
<path d="M8.89453 11.3237C8.89453 10.9786 8.61471 10.6987 8.26953 10.6987C7.92435 10.6987 7.64453 10.9786 7.64453 11.3237C7.64453 11.6689 7.92435 11.9487 8.26953 11.9487C8.61471 11.9487 8.89453 11.6689 8.89453 11.3237Z" fill="white"/>
</g>
<defs>
<clipPath id="clip0_422_9211">
<rect width="15" height="15" fill="white" transform="translate(0.769531 0.0737305)"/>
</clipPath>
</defs>
</svg>
