<svg width="19" height="19" viewBox="0 0 19 19" fill="none" xmlns="http://www.w3.org/2000/svg">
<path d="M10.5371 5.2988C10.5371 5.59717 10.4188 5.88332 10.2083 6.0943C9.99776 6.30527 9.71222 6.4238 9.41448 6.4238C9.11675 6.4238 8.83121 6.30527 8.62068 6.0943C8.41015 5.88332 8.29188 5.59717 8.29188 5.2988C8.29188 5.00043 8.41015 4.71428 8.62068 4.5033C8.83121 4.29233 9.11675 4.1738 9.41448 4.1738C9.71222 4.1738 9.99776 4.29233 10.2083 4.5033C10.4188 4.71428 10.5371 5.00043 10.5371 5.2988ZM18.3953 14.6738V9.6788C18.4233 7.36689 17.5774 5.12997 16.0276 3.41718C14.4778 1.70439 12.3389 0.642527 10.0402 0.444799C8.75712 0.354842 7.46978 0.542104 6.26522 0.993914C5.06067 1.44572 3.967 2.15154 3.05822 3.06361C2.14944 3.97568 1.44675 5.07272 0.997684 6.28052C0.548622 7.48831 0.363668 8.77867 0.455335 10.0643C0.78613 14.8298 4.98543 18.4238 10.225 18.4238H14.6533C15.6454 18.4226 16.5965 18.0271 17.298 17.3241C17.9995 16.6211 18.3941 15.668 18.3953 14.6738ZM9.93837 1.9418C11.8591 2.11208 13.6444 3.00448 14.9355 4.43972C16.2267 5.87495 16.928 7.74667 16.8985 9.6788V14.6738C16.8985 15.2705 16.662 15.8428 16.2409 16.2648C15.8199 16.6867 15.2488 16.9238 14.6533 16.9238H10.225C5.70913 16.9238 2.2298 13.9988 1.94915 9.9608C1.87547 8.93224 2.01424 7.8995 2.35679 6.9271C2.69934 5.9547 3.23832 5.06355 3.94004 4.3093C4.64175 3.55506 5.49114 2.95393 6.43514 2.54349C7.37913 2.13304 8.39744 1.92208 9.42646 1.9238C9.59635 1.9238 9.76773 1.93055 9.93837 1.9418ZM10.9113 13.9238V9.4238C10.9113 9.02598 10.7536 8.64445 10.4729 8.36314C10.1922 8.08184 9.81146 7.9238 9.41448 7.9238H8.66608C8.46759 7.9238 8.27723 8.00282 8.13688 8.14347C7.99652 8.28412 7.91768 8.47489 7.91768 8.6738C7.91768 8.87271 7.99652 9.06348 8.13688 9.20413C8.27723 9.34478 8.46759 9.4238 8.66608 9.4238H9.41448V13.9238C9.41448 14.1227 9.49333 14.3135 9.63369 14.4541C9.77404 14.5948 9.9644 14.6738 10.1629 14.6738C10.3614 14.6738 10.5517 14.5948 10.6921 14.4541C10.8324 14.3135 10.9113 14.1227 10.9113 13.9238Z" fill="black"/>
</svg>
