<svg width="33" height="33" viewBox="0 0 33 33" fill="none" xmlns="http://www.w3.org/2000/svg">
<path d="M10.7319 32.3169C8.31823 32.3154 5.98657 31.4409 4.16717 29.8548C2.34777 28.2688 1.16341 26.0782 0.832648 23.6873C0.501883 21.2964 1.04703 18.8666 2.3675 16.8461C3.68797 14.8257 5.69464 13.351 8.01723 12.6943C9.7054 12.2108 11.4923 12.1887 13.1919 12.6303L23.7359 2.08892C24.2956 1.5253 24.9617 1.07843 25.6955 0.774248C26.4293 0.470063 27.2162 0.314615 28.0106 0.31692C29.2606 0.317979 30.4592 0.815042 31.3432 1.69898C32.2271 2.58293 32.7242 3.7815 32.7252 5.03159C32.7273 5.82597 32.5719 6.61289 32.268 7.34684C31.964 8.08079 31.5176 8.74722 30.9546 9.30759L30.0586 10.2036C29.5572 10.7015 28.8798 10.9818 28.1732 10.9836H26.0586V12.3169C26.0586 13.0242 25.7776 13.7024 25.2775 14.2025C24.7774 14.7026 24.0991 14.9836 23.3919 14.9836H22.0586V17.0983C22.0595 17.4486 21.9909 17.7956 21.8568 18.1192C21.7227 18.4428 21.5257 18.7366 21.2772 18.9836L20.4106 19.8503C20.8545 21.549 20.8329 23.336 20.3479 25.0236C19.8022 26.9463 18.695 28.6623 17.1681 29.9519C15.6412 31.2415 13.7641 32.0459 11.7772 32.2623C11.43 32.2983 11.081 32.3166 10.7319 32.3169ZM10.7319 14.9836C9.36676 14.9823 8.02836 15.362 6.86735 16.0801C5.70633 16.7982 4.76881 17.8261 4.1603 19.0481C3.55179 20.2701 3.29647 21.6377 3.42306 22.997C3.54966 24.3562 4.05315 25.6532 4.87685 26.7418C5.70056 27.8304 6.81179 28.6675 8.08544 29.1588C9.35909 29.6501 10.7446 29.7762 12.086 29.5228C13.4274 29.2694 14.6715 28.6466 15.6781 27.7245C16.6848 26.8024 17.4141 25.6177 17.7839 24.3036C18.1999 22.859 18.1533 21.3204 17.6506 19.9036C17.5685 19.667 17.5548 19.412 17.6109 19.168C17.667 18.9239 17.7907 18.7006 17.9679 18.5236L19.3919 17.0983V14.9836C19.3919 14.2763 19.6728 13.5981 20.1729 13.098C20.673 12.5979 21.3513 12.3169 22.0586 12.3169H23.3919V10.9836C23.3919 10.2763 23.6728 9.59806 24.1729 9.09797C24.673 8.59787 25.3513 8.31692 26.0586 8.31692H28.1732L29.0692 7.42092C29.3838 7.10779 29.6333 6.7354 29.8031 6.32529C29.9729 5.91517 30.0597 5.47547 30.0586 5.03159C30.0582 4.48876 29.8425 3.96825 29.4588 3.58429C29.0751 3.20033 28.5547 2.98429 28.0119 2.98359C27.5677 2.9825 27.1277 3.06949 26.7174 3.23953C26.307 3.40958 25.9345 3.6593 25.6212 3.97425L14.5132 15.0809C14.336 15.2581 14.1123 15.3817 13.868 15.4376C13.6237 15.4935 13.3686 15.4794 13.1319 15.3969C12.3587 15.1247 11.545 14.9849 10.7252 14.9836H10.7319ZM7.3919 24.3169C7.3919 24.5806 7.4701 24.8384 7.6166 25.0577C7.76311 25.2769 7.97135 25.4478 8.21499 25.5488C8.45862 25.6497 8.72671 25.6761 8.98535 25.6246C9.24399 25.5732 9.48157 25.4462 9.66804 25.2597C9.85451 25.0733 9.9815 24.8357 10.0329 24.577C10.0844 24.3184 10.058 24.0503 9.95707 23.8067C9.85615 23.563 9.68526 23.3548 9.46599 23.2083C9.24673 23.0618 8.98894 22.9836 8.72523 22.9836C8.37161 22.9836 8.03247 23.1241 7.78242 23.3741C7.53237 23.6242 7.3919 23.9633 7.3919 24.3169Z" fill="white"/>
</svg>
