<svg width="14" height="20" viewBox="0 0 14 20" fill="none" xmlns="http://www.w3.org/2000/svg">
<path d="M9.49869 0H4.49869C3.39403 0.00132321 2.33499 0.440735 1.55388 1.22185C0.772766 2.00296 0.333354 3.062 0.332031 4.16667V15.8333C0.333354 16.938 0.772766 17.997 1.55388 18.7781C2.33499 19.5593 3.39403 19.9987 4.49869 20H9.49869C10.6033 19.9987 11.6624 19.5593 12.4435 18.7781C13.2246 17.997 13.664 16.938 13.6654 15.8333V4.16667C13.664 3.062 13.2246 2.00296 12.4435 1.22185C11.6624 0.440735 10.6033 0.00132321 9.49869 0V0ZM4.49869 1.66667H9.49869C10.1617 1.66667 10.7976 1.93006 11.2665 2.3989C11.7353 2.86774 11.9987 3.50362 11.9987 4.16667V13.3333H1.9987V4.16667C1.9987 3.50362 2.26209 2.86774 2.73093 2.3989C3.19977 1.93006 3.83565 1.66667 4.49869 1.66667ZM9.49869 18.3333H4.49869C3.83565 18.3333 3.19977 18.0699 2.73093 17.6011C2.26209 17.1323 1.9987 16.4964 1.9987 15.8333V15H11.9987V15.8333C11.9987 16.4964 11.7353 17.1323 11.2665 17.6011C10.7976 18.0699 10.1617 18.3333 9.49869 18.3333Z" fill="white"/>
</svg>
