<svg xmlns="http://www.w3.org/2000/svg" width="32" height="32" viewBox="0 0 32 32">
  <g id="Profile" transform="translate(-1498 -167)">
    <path id="fi-rr-rec" d="M16,0A16,16,0,1,0,32,16,16,16,0,0,0,16,0Zm0,29.333A13.333,13.333,0,1,1,29.333,16,13.333,13.333,0,0,1,16,29.333Z" transform="translate(1498 167)"/>
    <g id="fi-rr-user" transform="translate(1506.077 174.624)">
      <path id="Path_91" data-name="Path 91" d="M11.2,10.4A5.2,5.2,0,1,0,6,5.2a5.2,5.2,0,0,0,5.2,5.2Zm0-8.669A3.468,3.468,0,1,1,7.734,5.2,3.468,3.468,0,0,1,11.2,1.734Z" transform="translate(-3.399)" stroke="#000" stroke-width="1"/>
      <path id="Path_92" data-name="Path 92" d="M10.8,14A7.811,7.811,0,0,0,3,21.8a.867.867,0,0,0,1.734,0,6.068,6.068,0,0,1,12.137,0,.867.867,0,0,0,1.734,0A7.811,7.811,0,0,0,10.8,14Z" transform="translate(-3 -1.863)" stroke="#000" stroke-width="1"/>
    </g>
  </g>
</svg>
