<svg width="20" height="15" viewBox="0 0 20 15" fill="none" xmlns="http://www.w3.org/2000/svg">
<path d="M18.5745 1.19452L7.05963 12.9873C6.98221 13.0669 6.89021 13.13 6.7889 13.1731C6.68759 13.2162 6.57897 13.2384 6.46926 13.2384C6.35956 13.2384 6.25094 13.2162 6.14963 13.1731C6.04832 13.13 5.95632 13.0669 5.8789 12.9873L1.42595 8.42224C1.34853 8.34263 1.25653 8.27947 1.15522 8.23637C1.05391 8.19327 0.945287 8.17108 0.835585 8.17108C0.725883 8.17108 0.617261 8.19327 0.515951 8.23637C0.414641 8.27947 0.322638 8.34263 0.24522 8.42224C0.167496 8.50153 0.105824 8.59576 0.0637431 8.69952C0.021662 8.80329 0 8.91454 0 9.02689C0 9.13925 0.021662 9.2505 0.0637431 9.35427C0.105824 9.45803 0.167496 9.55226 0.24522 9.63155L4.69983 14.1932C5.16975 14.6735 5.80657 14.9434 6.47051 14.9434C7.13446 14.9434 7.77128 14.6735 8.24119 14.1932L19.7552 2.40298C19.8328 2.3237 19.8944 2.22952 19.9364 2.12584C19.9784 2.02216 20 1.911 20 1.79875C20 1.68649 19.9784 1.57534 19.9364 1.47165C19.8944 1.36797 19.8328 1.27379 19.7552 1.19452C19.6778 1.11491 19.5858 1.05175 19.4845 1.00865C19.3832 0.965546 19.2745 0.943359 19.1648 0.943359C19.0551 0.943359 18.9465 0.965546 18.8452 1.00865C18.7439 1.05175 18.6519 1.11491 18.5745 1.19452Z" fill="#04B983"/>
</svg>
