<svg width="35" height="35" viewBox="0 0 35 35" fill="none" xmlns="http://www.w3.org/2000/svg">
<path d="M30.4158 22.1004L25.0262 30.895C24.4343 31.8666 23.6286 32.6905 22.6704 33.3038C21.7122 33.9171 20.6267 34.3037 19.4965 34.4343C19.1987 34.4696 18.8991 34.4873 18.5992 34.4872C17.0638 34.4851 15.5666 34.0085 14.3126 33.1226C13.0167 34.0935 11.4159 34.568 9.80029 34.4603C8.18465 34.3526 6.66103 33.6697 5.50549 32.5354C4.34995 31.4012 3.63893 29.8905 3.50125 28.2771C3.36357 26.6637 3.80835 25.0544 4.75499 23.7407L2.87604 21.8647C2.07374 21.0623 1.46336 20.0888 1.09062 19.0171C0.717882 17.9454 0.592446 16.8033 0.723707 15.6762C0.854967 14.5492 1.23952 13.4664 1.84857 12.5091C2.45762 11.5517 3.27538 10.7445 4.2406 10.148L12.4808 5.05274C14.713 3.62214 17.338 2.92853 19.9855 3.06979C22.633 3.21105 25.1693 4.18004 27.2366 5.84004L29.6071 3.46957C29.7389 3.33309 29.8966 3.22424 30.0709 3.14936C30.2452 3.07447 30.4327 3.03505 30.6224 3.03341C30.8121 3.03176 31.0003 3.06791 31.1759 3.13975C31.3515 3.2116 31.511 3.3177 31.6452 3.45185C31.7794 3.58601 31.8855 3.74555 31.9573 3.92115C32.0291 4.09675 32.0653 4.2849 32.0636 4.47462C32.062 4.66435 32.0226 4.85184 31.9477 5.02617C31.8728 5.20049 31.764 5.35816 31.6275 5.48997L29.2599 7.85901C30.8478 9.84832 31.8061 12.2662 32.012 14.8032C32.2179 17.3403 31.6622 19.8811 30.4158 22.1004ZM12.135 31.1251L6.82112 25.8097C6.40586 26.5524 6.24569 27.4108 6.36519 28.2532C6.4847 29.0957 6.87726 29.8756 7.48268 30.4735C8.0934 31.0536 8.8702 31.4283 9.7044 31.5452C10.5386 31.662 11.3884 31.5151 12.135 31.1251ZM26.3107 8.83492C24.724 7.23294 22.6353 6.22443 20.3941 5.97812C18.1528 5.73181 15.895 6.26264 13.9983 7.48179L5.74376 12.5771C5.14512 12.9471 4.63796 13.4478 4.26026 14.0416C3.88255 14.6354 3.64408 15.307 3.56272 16.006C3.48135 16.7051 3.55919 17.4135 3.79041 18.0782C4.02163 18.7429 4.40024 19.3466 4.89788 19.8443L15.3142 30.262C15.8127 30.761 16.4178 31.1405 17.084 31.372C17.7502 31.6034 18.4603 31.6808 19.1607 31.5983C19.8612 31.5158 20.5338 31.2755 21.128 30.8956C21.7222 30.5156 22.2226 30.0059 22.5914 29.4047L27.9568 20.653C29.0047 18.7708 29.4109 16.5984 29.1139 14.4647C28.8169 12.3311 27.8328 10.3522 26.3107 8.82778V8.83492ZM28.1382 34.4872C27.8365 34.4877 27.5423 34.3927 27.2978 34.2158C27.0534 34.0389 26.8712 33.7891 26.7775 33.5023C26.6837 33.2154 26.6832 32.9063 26.7759 32.6192C26.8687 32.332 27.0499 32.0816 27.2938 31.9038C29.7957 30.0228 31.489 27.261 32.0304 24.178C32.0684 23.9924 32.1429 23.8162 32.2496 23.6597C32.3563 23.5031 32.493 23.3694 32.6519 23.2662C32.8107 23.163 32.9885 23.0924 33.1749 23.0585C33.3613 23.0246 33.5525 23.0282 33.7375 23.0689C33.9225 23.1097 34.0976 23.1868 34.2525 23.2958C34.4074 23.4048 34.5391 23.5435 34.64 23.7039C34.7408 23.8643 34.8087 24.0431 34.8398 24.23C34.8709 24.4168 34.8645 24.608 34.821 24.7924C34.1209 28.5526 32.0367 31.9139 28.9798 34.2128C28.7354 34.3911 28.4407 34.4871 28.1382 34.4872ZM2.04016 8.39483C1.77626 8.39366 1.51783 8.31941 1.29354 8.18034C1.06926 8.04126 0.887866 7.84279 0.769488 7.60692C0.651109 7.37105 0.600367 7.107 0.622889 6.84406C0.64541 6.58111 0.740314 6.32954 0.897078 6.11724C3.22751 3.00317 6.65797 0.895227 10.489 0.223204C10.8604 0.147413 11.2466 0.222255 11.5628 0.431266C11.879 0.640277 12.0992 0.966335 12.175 1.33771C12.2508 1.70909 12.176 2.09536 11.967 2.41156C11.758 2.72776 11.4319 2.94797 11.0605 3.02376C7.91416 3.54333 5.0911 5.26082 3.18325 7.81615C3.0509 7.99492 2.87865 8.14033 2.6802 8.24079C2.48175 8.34126 2.26259 8.394 2.04016 8.39483Z" fill="white"/>
</svg>
